<svg width="78" height="76" viewBox="0 0 78 76" fill="none" xmlns="http://www.w3.org/2000/svg">
<circle cx="39.021" cy="42.6004" r="31.5367" transform="rotate(8.72827 39.021 42.6004)" fill="black"/>
<circle cx="38.6213" cy="39.6914" r="31.5367" transform="rotate(8.72827 38.6213 39.6914)" fill="#FBC98F"/>
<path d="M38.0464 23.9038L42.0771 20.6149L43.9886 24.3209L51.0069 29.1636L59.0152 30.9267L59.7118 32.7603L53.609 49.0635L44.6195 59.2081L35.165 62.9773L30.3676 59.9836L24.8731 51.7208L21.5445 38.7613L22.7808 24.1764L29.0558 25.46L38.0464 23.9038Z" fill="#4DBB3E" stroke="black" stroke-width="0.49686" stroke-linecap="round"/>
<path fill-rule="evenodd" clip-rule="evenodd" d="M43.7112 20.5847C43.759 20.1649 43.5928 19.7311 43.2342 19.4537C42.6883 19.0314 41.9035 19.1316 41.4812 19.6774C39.7686 21.8911 33.7803 26.0501 24.0968 23.2548C22.9958 22.9369 21.7505 23.5603 21.4739 24.7814C20.3655 29.6746 19.7077 37.129 21.1998 44.5003C22.6823 51.8243 26.3171 59.182 33.8618 63.7482C34.127 64.1608 34.6232 64.3952 35.1359 64.3025C43.9193 62.7147 49.9638 57.0498 53.9454 50.6521C57.9193 44.2669 59.9079 37.0526 60.5793 32.0806C60.7469 30.8398 59.798 29.8206 58.6553 29.7336C48.9402 28.9943 44.7315 23.3727 43.7112 20.5847ZM41.9527 22.7561C38.792 25.4453 32.5464 28.1539 23.8151 25.7715C22.8264 30.4017 22.2857 37.2672 23.6494 44.0045C25.0539 50.9432 28.4478 57.6281 35.3295 61.7141C35.3314 61.7152 35.3333 61.7163 35.3352 61.7175C42.8687 60.1397 48.1857 55.1769 51.8236 49.3316C55.4557 43.4956 57.3481 36.8739 58.0398 32.1901C48.8003 31.3506 43.8775 26.4116 41.9527 22.7561Z" fill="white"/>
<path d="M38.2594 29.1078L41.1161 26.777L42.4708 29.4035L47.4449 32.8356L53.1206 34.0852L53.6143 35.3848L49.2891 46.9393L42.918 54.1292L36.2173 56.8005L32.8172 54.6787L28.9231 48.8227L26.564 39.6378L27.4401 29.3011L31.8875 30.2108L38.2594 29.1078Z" fill="white" stroke="#4DBB3E" stroke-width="0.352141" stroke-linecap="round"/>
<path d="M37.3642 49.1797C37.3253 49.1667 37.3076 49.1352 37.2868 49.1076C36.8286 48.4969 36.3703 47.8857 35.9116 47.2751C34.395 45.2544 32.8785 43.2338 31.3619 41.2131C31.3063 41.1389 31.2544 41.0618 31.1946 40.9919C31.1307 40.9165 31.1624 40.8731 31.2253 40.8216C31.6139 40.5071 32.0005 40.1898 32.3875 39.8731C32.6831 39.6312 32.9803 39.3921 33.2728 39.1464C33.3502 39.0813 33.3902 39.0895 33.451 39.1714C34.4163 40.4626 35.3848 41.7517 36.3527 43.0413C36.6306 43.4117 36.9096 43.7804 37.1839 44.1536C37.2463 44.2382 37.278 44.2333 37.3362 44.1476C38.8366 41.9577 40.3391 39.7695 41.8417 37.5808C42.8257 36.1469 43.8092 34.713 44.7932 33.2791C44.8805 33.1522 44.8815 33.1539 45.001 33.2439C45.6936 33.7623 46.3851 34.2824 47.0802 34.7971C47.1696 34.8632 47.1862 34.9045 47.1166 35.0059C45.3382 37.5905 43.5639 40.1784 41.7881 42.7652C40.5506 44.5684 39.312 46.3711 38.0744 48.1737C37.8645 48.4796 37.6557 48.7865 37.4458 49.0924C37.4224 49.1265 37.4022 49.1656 37.3627 49.1797L37.3642 49.1797Z" fill="#4DBB3E"/>
<path fill-rule="evenodd" clip-rule="evenodd" d="M42.2745 26.7533C42.3078 26.4562 42.1899 26.1495 41.9362 25.9532C41.5493 25.6539 40.9931 25.7249 40.6938 26.1118C39.48 27.6807 35.2359 30.6283 28.3729 28.6472C27.5926 28.4219 26.7101 28.8637 26.514 29.7292C25.7285 33.1971 25.2623 38.4803 26.3197 43.7046C27.3705 48.8957 29.947 54.1108 35.2951 57.3469C35.4832 57.6387 35.8344 57.8042 36.1973 57.7386C42.4224 56.6134 46.7063 52.5985 49.5282 48.0642C52.3446 43.5388 53.754 38.4258 54.2299 34.902C54.3486 34.0226 53.6761 33.3002 52.8662 33.2386C45.9795 32.7145 42.9968 28.7288 42.2745 26.7533ZM41.0285 28.2933C38.7886 30.1994 34.362 32.1195 28.1733 30.4309C27.4726 33.7125 27.0893 38.5782 28.0558 43.3532C29.0513 48.2709 31.4567 53.0086 36.3339 55.9045C36.3351 55.9052 36.3364 55.906 36.3377 55.9068C41.6774 54.7887 45.446 51.2713 48.0244 47.1283C50.5986 42.9921 51.9398 38.2992 52.43 34.9796C45.8816 34.3846 42.3927 30.8841 41.0285 28.2933Z" fill="white"/>
<path d="M22 11C13.4964 12.3791 12.3791 13.4974 11 22C9.62089 13.4964 8.50261 12.3791 0 11C8.50364 9.62089 9.62089 8.50261 11 0C12.3791 8.50364 13.4974 9.62089 22 11Z" fill="#F7931E"/>
<path d="M76 62C65.1771 63.7561 63.7537 65.1772 62 76C60.2439 65.1772 58.8228 63.7537 48 62C58.8228 60.2439 60.2463 58.8228 62 48C63.7561 58.8228 65.1771 60.2463 76 62Z" fill="#F7931E"/>
</svg>
