<svg width="32" height="32" viewBox="0 0 32 32" fill="none" xmlns="http://www.w3.org/2000/svg">
<path fill-rule="evenodd" clip-rule="evenodd" d="M0.585786 18.5859C0.960861 18.2108 1.46957 18.0001 2 18.0001H6C6.55228 18.0001 7 18.4478 7 19.0001C7 19.5524 6.55228 20.0001 6 20.0001L2 20.0001V25.0001H6C6.55228 25.0001 7 25.4478 7 26.0001C7 26.5524 6.55228 27.0001 6 27.0001H2C1.46957 27.0001 0.960861 26.7894 0.585786 26.4143C0.210713 26.0393 0 25.5306 0 25.0001V20.0001C0 19.4697 0.210713 18.961 0.585786 18.5859Z" fill="#4DBB3E"/>
<path fill-rule="evenodd" clip-rule="evenodd" d="M11.2475 16.0001C10.9847 15.9995 10.7242 16.0507 10.4811 16.1508C10.2383 16.2507 10.0175 16.3976 9.83144 16.5829L7 19.4143V25.0001H14.8769L22.6806 23.0492L27.4281 21.024C27.5969 20.9347 27.739 20.802 27.8396 20.6393C27.9444 20.4698 27.9999 20.2744 28 20.075C27.9998 19.9095 27.9615 19.7463 27.8879 19.5981C27.8144 19.4498 27.7076 19.3205 27.576 19.2202C27.4444 19.1199 27.2914 19.0513 27.1289 19.0198C26.9665 18.9882 26.7989 18.9946 26.6393 19.0383C26.626 19.042 26.6126 19.0453 26.5991 19.0484L18.2241 20.9747C18.1506 20.9916 18.0754 21.0001 18 21.0001H14C13.4477 21.0001 13 20.5524 13 20.0001C13 19.4478 13.4477 19.0001 14 19.0001H17.5C17.8978 19.0001 18.2794 18.8421 18.5607 18.5608C18.842 18.2795 19 17.8979 19 17.5001C19 17.1023 18.842 16.7208 18.5607 16.4395C18.2794 16.1582 17.8978 16.0001 17.5 16.0001H11.25L11.2475 16.0001ZM20.9061 18.3056L26.1326 17.1035C26.5823 16.9839 27.0532 16.9677 27.5102 17.0564C27.9745 17.1466 28.4118 17.3427 28.7881 17.6293C29.1644 17.916 29.4694 18.2856 29.6796 18.7094C29.8898 19.1331 29.9994 19.5997 30 20.0727C30.0002 20.6441 29.8412 21.205 29.5408 21.691C29.2403 22.177 28.8104 22.5696 28.2992 22.8248C28.2813 22.8337 28.2632 22.8421 28.2449 22.8499L23.3924 24.9199C23.3438 24.9406 23.2937 24.9575 23.2425 24.9703L15.2425 26.9703C15.1632 26.9901 15.0818 27.0001 15 27.0001H6C5.44772 27.0001 5 26.5524 5 26.0001V19.0001C5 18.7349 5.10536 18.4805 5.29289 18.293L8.41912 15.1668C8.79154 14.7957 9.23347 14.5016 9.71964 14.3014C10.2054 14.1014 10.7258 13.999 11.2511 14.0001L11.2525 14.0001L11.25 15.0001V14.0001H11.2511H17.5C18.4283 14.0001 19.3185 14.3689 19.9749 15.0252C20.6313 15.6816 21 16.5719 21 17.5001C21 17.7736 20.968 18.0438 20.9061 18.3056Z" fill="#4DBB3E"/>
<path fill-rule="evenodd" clip-rule="evenodd" d="M20.0482 3.75012H17.875C17.4608 3.75012 17.125 4.08591 17.125 4.50012V6.67336C17.1248 6.68224 17.1248 6.69116 17.125 6.70009V9.30015C17.1248 9.30908 17.1248 9.318 17.125 9.32688V11.5001C17.125 11.9143 17.4608 12.2501 17.875 12.2501H20.0482C20.0571 12.2503 20.066 12.2503 20.075 12.2501H27.925C27.934 12.2503 27.9429 12.2503 27.9518 12.2501H30.125C30.5392 12.2501 30.875 11.9143 30.875 11.5001V9.32689C30.8752 9.318 30.8752 9.30908 30.875 9.30014V6.7001C30.8752 6.69116 30.8752 6.68224 30.875 6.67335V4.50012C30.875 4.08591 30.5392 3.75012 30.125 3.75012H27.9518C27.9429 3.74996 27.934 3.74996 27.925 3.75012H20.075C20.066 3.74996 20.0571 3.74996 20.0482 3.75012ZM27.3659 5.25012H20.6341C20.4635 5.70705 20.1963 6.12466 19.8479 6.47305C19.4995 6.82145 19.0819 7.08864 18.625 7.25919V8.74105C19.0819 8.9116 19.4995 9.17879 19.8479 9.52719C20.1963 9.87558 20.4635 10.2932 20.6341 10.7501H27.3659C27.5365 10.2932 27.8037 9.87558 28.1521 9.52719C28.5005 9.17879 28.9181 8.9116 29.375 8.74105V7.25919C28.9181 7.08864 28.5005 6.82145 28.1521 6.47305C27.8037 6.12466 27.5365 5.70705 27.3659 5.25012ZM29.0679 5.25012C29.1129 5.3067 29.1612 5.36089 29.2127 5.41239C29.2642 5.46389 29.3184 5.51223 29.375 5.55726V5.25012H29.0679ZM29.375 10.443C29.3184 10.488 29.2642 10.5363 29.2127 10.5878C29.1612 10.6393 29.1129 10.6935 29.0679 10.7501H29.375V10.443ZM18.9321 10.7501C18.8871 10.6935 18.8388 10.6393 18.7873 10.5878C18.7358 10.5363 18.6816 10.488 18.625 10.443V10.7501H18.9321ZM18.625 5.55726C18.6816 5.51223 18.7358 5.46389 18.7873 5.41239C18.8388 5.36089 18.8871 5.3067 18.9321 5.25012H18.625V5.55726ZM24 7.00012C23.4477 7.00012 23 7.44783 23 8.00012C23 8.5524 23.4477 9.00012 24 9.00012C24.5523 9.00012 25 8.5524 25 8.00012C25 7.44783 24.5523 7.00012 24 7.00012ZM21.5 8.00012C21.5 6.61941 22.6193 5.50012 24 5.50012C25.3807 5.50012 26.5 6.61941 26.5 8.00012C26.5 9.38083 25.3807 10.5001 24 10.5001C22.6193 10.5001 21.5 9.38083 21.5 8.00012Z" fill="#4DBB3E"/>
</svg>
