<svg width="1920" height="240" viewBox="0 0 1920 240" fill="none" xmlns="http://www.w3.org/2000/svg">
  <path fillRule="evenodd" clipRule="evenodd" d="M0 240H1920V80C1920 80 1850 100 1800 95C1750 90 1700 70 1650 75C1600 80 1550 100 1500 95C1450 90 1400 70 1350 75C1300 80 1250 100 1200 95C1150 90 1100 70 1050 75C1000 80 950 100 900 95C850 90 800 70 750 75C700 80 650 100 600 95C550 90 500 70 450 75C400 80 350 100 300 95C250 90 200 70 150 75C100 80 50 100 0 95V240Z" fill="#154870"/>
  <path fillRule="evenodd" clipRule="evenodd" d="M0 240H1920V120C1920 120 1850 140 1800 135C1750 130 1700 110 1650 115C1600 120 1550 140 1500 135C1450 130 1400 110 1350 115C1300 120 1250 140 1200 135C1150 130 1100 110 1050 115C1000 120 950 140 900 135C850 130 800 110 750 115C700 120 650 140 600 135C550 130 500 110 450 115C400 120 350 140 300 135C250 130 200 110 150 115C100 120 50 140 0 135V240Z" fill="#1B4165"/>
  <path d="M960 80V240" stroke="#154870" strokeWidth="2"/>
  <path d="M480 100V240" stroke="#154870" strokeWidth="2"/>
  <path d="M1440 100V240" stroke="#154870" strokeWidth="2"/>
  <rect x="920" y="40" width="80" height="40" fill="#154870"/>
  <rect x="440" y="60" width="80" height="40" fill="#154870"/>
  <rect x="1400" y="60" width="80" height="40" fill="#154870"/>
</svg>

